<?xml version="1.0" encoding="UTF-8" standalone="no"?>
<svg viewBox="" version="1.1" xmlns="http://www.w3.org/2000/svg" xmlns:xlink="http://www.w3.org/2000/svg">
	<defs>
		<clipPath id="clip_dp_001" clipPathUnits="userSpaceOnUse" clip-rule="evenodd">
			<path d="M -0.266667,-0.484 L 37.1733,-0.484 L 37.1733,9.16267 L -0.266667,9.16267 Z " clip-rule="evenodd"/>
		</clipPath>
	</defs>
	<path id="dp_path001" transform="matrix(1,0,0,1,1.52267,9.33067)" fill="white" fill-rule="evenodd" stroke="black" stroke-width="0.534667" d="M 0.244,27.4933 L 18.5213,0 L 18.5213,0 L 36.5693,27.2587 C 37.312,28.128 36.7147,29.5933 35.8187,29.5827 L 1.30133,29.8027 C -0.130667,29.292 -0.204,28.4547 0.244,27.4933 Z "/>
	<path id="dp_path002" transform="matrix(1,0,0,1,0.269333,5.176)" fill="white" fill-rule="evenodd" stroke="black" stroke-width="0.534667" d="M 20.1867,32.3747 C 14.7133,32.3707 9.12133,29.0147 6.36933,22.8493 L 5.72933,4.91067 L 19.6093,13.0253 L 33.4907,5.232 L 32.8493,23.0627 C 30.3667,29.4227 25.3293,32.376 20.1867,32.3747 Z M 19.82,36.7787 C 28.1467,36.6707 36.424,31.388 37.5467,20.82 L 37.3547,2.652 L 38.456,2.616 L 39.0413,2.02667 L 39.0413,0 L 32.956,0.105333 L 19.5027,8.43467 L 6.70533,0.489333 L 0.036,0.341333 L 0,2.276 L 0.493333,2.82133 L 1.532,2.76667 L 1.69467,14.684 L 1.672,20.7133 C 2.57867,31.4947 11.2267,36.8907 19.82,36.7787 Z "/>
	<g id="dp_dp003" transform="matrix(1,0,0,1,1.52267,9.33067)" clip-path="url(#clip_dp_001)">
		<g id="clip">
			<path id="dp_path004" fill="white" fill-rule="evenodd" stroke="black" stroke-width="0.534667" d="M 0.244,27.4933 L 18.5213,0 L 18.5213,0 L 36.5693,27.2587 C 37.312,28.128 36.7147,29.5933 35.8187,29.5827 L 1.30133,29.8027 C -0.130667,29.292 -0.204,28.4547 0.244,27.4933 Z "/>
		</g>
	</g>
	<path id="dp_path005" transform="matrix(1,0,0,1,15.8293,0)" fill="#1da660" fill-rule="evenodd" stroke="none" stroke-width="0" d="M 1.23733,0 L 1.44667,0.665333 L 1.528,0.913333 L 1.78533,0.914667 L 2.47467,0.910667 L 1.91467,1.31733 L 1.708,1.472 L 1.78533,1.72 L 2.00267,2.38267 L 1.44667,1.96933 L 1.23733,1.81733 L 1.028,1.96933 L 0.472,2.38267 L 0.689333,1.72 L 0.766667,1.472 L 0.56,1.31733 L 0,0.910667 L 0.689333,0.914667 L 0.946667,0.913333 L 1.028,0.665333 Z "/>
	<path id="dp_path006" transform="matrix(1,0,0,1,22.076,0.0613333)" fill="#1da660" fill-rule="evenodd" stroke="none" stroke-width="0" d="M 1.384,0 L 1.46667,0.693333 L 1.50133,0.952 L 1.75333,1 L 2.432,1.124 L 1.80533,1.42 L 1.57467,1.53333 L 1.604,1.792 L 1.69467,2.484 L 1.22533,1.97467 L 1.048,1.78533 L 0.813333,1.896 L 0.190667,2.2 L 0.526667,1.588 L 0.649333,1.35867 L 0.474667,1.16933 L 0,0.665333 L 0.676,0.797333 L 0.929333,0.844 L 1.056,0.614667 Z "/>
	<path id="dp_path007" transform="matrix(1,0,0,1,27.4893,1.952)" fill="#1da660" fill-rule="evenodd" stroke="none" stroke-width="0" d="M 1.78267,0 L 1.66,0.685333 L 1.61733,0.944 L 1.844,1.064 L 2.45733,1.38 L 1.772,1.48 L 1.51733,1.52133 L 1.47067,1.77733 L 1.356,2.46533 L 1.056,1.84133 L 0.94,1.60933 L 0.684,1.64667 L 0,1.756 L 0.5,1.26933 L 0.684,1.08533 L 0.572,0.852 L 0.264,0.233333 L 0.873333,0.556 L 1.10133,0.673333 L 1.28933,0.492 Z "/>
	<path id="dp_path008" transform="matrix(1,0,0,1,10.06,2.18)" fill="#1da660" fill-rule="evenodd" stroke="none" stroke-width="0" d="M 0.690667,0 L 1.17867,0.498667 L 1.36267,0.682667 L 1.59333,0.568 L 2.20533,0.252 L 1.89067,0.868 L 1.77733,1.1 L 1.95867,1.28533 L 2.452,1.77733 L 1.76933,1.66133 L 1.51333,1.62 L 1.396,1.85067 L 1.088,2.47067 L 0.981333,1.78267 L 0.937333,1.52533 L 0.682667,1.48133 L 0,1.37333 L 0.616,1.064 L 0.845333,0.946667 L 0.805333,0.688 Z "/>
	<path id="dp_path009" transform="matrix(1,0,0,1,2.74001,3.64533)" fill="#1da660" fill-rule="evenodd" stroke="none" stroke-width="0" d="M 16.6253,37.9347 C 16.712,38.0067 16.8387,38.0547 16.9787,38.076 L 16.9787,12.9093 C 13.7827,13.3227 11.12,17.604 15.92,20.532 C 13.78,23.7493 10.576,23.4267 8.69467,21.64 C 7.22933,20.252 6.56533,17.9747 7.81467,15.792 C 10.9667,11.868 13.8347,8.392 16.9787,4.49067 L 16.9787,0.036 C 16.6253,0.118667 16.268,0.346667 15.9307,0.724 C 13.26,3.744 3.62133,14.3133 0.965333,17.4013 C 0.518667,17.9227 0.0466667,18.6707 0.004,19.2347 C -0.0386667,19.804 0.389333,20.4107 0.709333,20.8067 C 3.436,24.148 13.948,35.0547 16.6027,37.9093 C 16.6107,37.9187 16.616,37.9253 16.6253,37.9347 Z M 17.468,38.056 C 17.6547,38.016 17.8307,37.9347 17.9427,37.8173 C 20.8267,34.908 31.236,23.844 33.924,20.4613 C 34.6907,19.5013 34.6187,18.3333 33.8627,17.5373 C 30.94,14.4387 21.9907,4.33733 18.4307,0.578667 C 18.132,0.225333 17.776,0.028 17.3973,0 L 17.3947,4.42533 C 20.62,8.376 23.9093,11.7133 27.0933,16.756 C 29.6653,20.8293 22.2133,25.6613 18.8587,20.72 C 18.4827,20.344 22.6973,18.576 21.116,15.412 C 20.1907,13.56 18.772,12.852 17.396,12.8813 L 17.396,38.0693 C 17.42,38.0653 17.444,38.0627 17.468,38.056 Z "/>
	<path id="dp_path010" transform="matrix(1,0,0,1,64.1933,16.524)" fill="#1da660" fill-rule="evenodd" stroke="none" stroke-width="0" d="M 4.144,8.86933 C 4.648,8.85867 5.15333,8.796 5.672,8.712 L 6.572,8.372 L 7.52133,6.20933 C 7.15333,6.568 6.57733,6.772 5.796,6.81867 L 4.012,6.932 C 3.64133,6.78267 3.36267,6.584 3.25733,6.27733 C 3.112,5.87867 3.09067,5.44667 3.156,4.996 L 7.792,4.992 C 7.81333,3.74133 7.532,2.132 6.772,1.192 C 6.212,0.572 5.512,0.125333 4.452,0.032 C 3.09333,-0.105333 2.16267,0.22 1.43067,0.762667 C 0.630667,1.60267 0.224,2.58 0.052,3.472 C -0.105333,4.86267 0.0946667,5.97867 0.618667,7.05467 C 1.12533,7.85733 1.74267,8.488 2.61467,8.71333 C 3.13333,8.836 3.63867,8.87867 4.144,8.86933 Z M 5.172,3.692 L 2.652,3.692 C 2.69867,2.812 2.89067,2.044 3.932,1.892 C 4.70933,1.904 5.076,2.58667 5.172,3.692 Z "/>
	<path id="dp_path011" transform="matrix(1,0,0,1,47.5973,12.8453)" fill="#1da660" fill-rule="evenodd" stroke="none" stroke-width="0" d="M 0,0 L 5.29067,0.00133333 L 5.35467,1.18933 L 8.26667,5.204 L 11.372,0.948 L 11.4213,0.0173333 L 15.4947,0.0146667 L 15.4947,1.036 L 14.8187,2.03333 L 14.7187,12.464 L 11.0467,12.5613 L 11.292,5.608 L 8.69733,9.32933 L 7.81467,9.232 L 5.07467,5.216 L 5.172,12.4133 L 1.596,12.4133 L 1.59867,1.84933 Z "/>
	<path id="dp_path012" transform="matrix(1,0,0,1,72.9787,16.7267)" fill="#1da660" fill-rule="evenodd" stroke="none" stroke-width="0" d="M 7.22267,6.14 L 6.50267,8.42933 C 5.59333,9.03067 2.74133,9.15467 1.20533,7.708 C -1.36267,5.42533 0.704,0.906667 2.35467,0.442667 C 2.96667,0.189333 3.60533,0 4.56133,0 C 5.87867,0.0546667 6.152,0.142667 7.04133,0.44 L 6.892,3.124 C 6.09333,2.13733 5.16267,2.128 4.748,2.128 C 3.12267,1.92667 1.584,8.59867 7.22267,6.14 Z "/>
	<path id="dp_path013" transform="matrix(1,0,0,1,80.996,12.964)" fill="#1da660" fill-rule="evenodd" stroke="none" stroke-width="0" d="M 0.0546667,0.669333 L 3.40133,0 L 3.21867,6.94267 L 5.532,4.53467 L 5.37067,3.832 L 6.08,3.82533 L 9.33333,3.82533 L 5.50533,7.748 L 9.604,12.4347 L 6.05867,12.4347 L 3.21867,10.3013 L 3.21867,12.4347 L 0,12.4347 Z "/>
	<path id="dp_path014" transform="matrix(1,0,0,1,96.7333,12.9947)" fill="#1da660" fill-rule="evenodd" stroke="none" stroke-width="0" d="M 0,0 L 5.29067,0.00133333 L 5.35467,1.18933 L 8.26667,5.204 L 11.372,0.948 L 11.4213,0.0173333 L 15.4947,0.0146667 L 15.4947,1.036 L 14.8187,2.03333 L 14.7187,12.464 L 11.0467,12.5613 L 11.292,5.608 L 8.69733,9.32933 L 7.81467,9.232 L 5.07467,5.216 L 5.172,12.4133 L 1.596,12.4133 L 1.59867,1.84933 Z "/>
	<path id="dp_path015" transform="matrix(1,0,0,1,113.255,16.7067)" fill="#1da660" fill-rule="evenodd" stroke="none" stroke-width="0" d="M 5.44133,8.62 C 4.05867,8.92 2.944,8.49867 1.95067,7.86133 C 0.957333,7.22533 0.342667,6.35733 0.104,5.26 C -0.149333,4.09067 0.0626667,3.02133 0.745333,2.04667 C 1.42667,1.07867 2.44667,0.445333 3.80933,0.149333 C 5.17867,-0.148 6.36533,0.00133333 7.36933,0.594667 C 8.376,1.18933 9.004,2.068 9.256,3.22667 C 9.51067,4.404 9.30133,5.47867 8.624,6.452 C 7.948,7.42533 6.83733,8.31733 5.44133,8.62 Z M 4.86933,6.43867 C 5.888,6.91867 6.292,5.236 6.02,4.372 C 4.98267,2.23333 3.55467,2.17333 3.34,2.764 C 3.06933,4.10667 4.136,6.06933 4.86933,6.43867 Z "/>
	<path id="dp_path016" transform="matrix(1,0,0,1,123.955,16.8587)" fill="#1da660" fill-rule="evenodd" stroke="none" stroke-width="0" d="M 3.13467,8.44533 L 0,8.44533 L 0.0573333,0 L 3.292,0.0773333 L 3.26133,1.39333 L 3.35467,1.40133 C 3.78933,0.526667 4.232,0.312 5.14,0.0973333 C 5.24667,0.0973333 5.86533,0.14 6.17467,0.172 L 5.48533,2.67867 C 5.06267,2.63067 4.18533,2.656 4.34533,2.656 C 3.736,2.81067 3.19867,3.06 3.16667,3.46267 Z "/>
	<path id="dp_path017" transform="matrix(1,0,0,1,140.975,16.872)" fill="#1da660" fill-rule="evenodd" stroke="none" stroke-width="0" d="M 8.24267,8.35467 L 4.732,8.388 L 4.74933,3.23467 C 4.74933,2.89067 4.69867,2.67867 4.60267,2.59733 C 4.508,2.51733 4.38,2.476 4.22533,2.476 C 3.75733,2.476 3.52,2.80267 3.52,3.452 L 3.47867,8.484 L 0.0306667,8.45067 L 0,0.032 L 3.29067,0 L 3.28533,1.348 C 3.328,1.20533 3.52933,1.29867 3.63333,1.23867 C 4.01333,1.02267 4.00933,-0.028 5.54667,0.052 C 6.16533,0.052 6.67733,0.178667 7.11467,0.404 C 7.54933,0.630667 7.78267,0.989333 7.97067,1.348 C 8.15733,1.70533 8.252,2.30533 8.252,3.15333 Z "/>
	<path id="dp_path018" transform="matrix(1,0,0,1,150.499,16.7147)" fill="#1da660" fill-rule="evenodd" stroke="none" stroke-width="0" d="M 3.50133,0 L 3.50133,8.68267 L 0,8.68267 L 0,0 Z "/>
	<path id="dp_path019" transform="matrix(1,0,0,1,130.292,16.7067)" fill="#1da660" fill-rule="evenodd" stroke="none" stroke-width="0" d="M 5.44133,8.62 C 4.05867,8.92 2.944,8.49867 1.94933,7.86133 C 0.957333,7.22533 0.342667,6.35733 0.104,5.26 C -0.150667,4.09067 0.0626667,3.02133 0.745333,2.04667 C 1.42667,1.07867 2.44667,0.445333 3.80933,0.149333 C 5.17867,-0.148 6.36533,0.00133333 7.36933,0.594667 C 8.37467,1.18933 9.004,2.068 9.256,3.22667 C 9.51067,4.404 9.30133,5.47867 8.624,6.452 C 7.94667,7.42533 6.836,8.31733 5.44133,8.62 Z M 4.86933,6.43867 C 5.888,6.91867 6.292,5.236 6.01867,4.372 C 4.98267,2.23333 3.55467,2.17333 3.34,2.764 C 3.06933,4.10667 4.13467,6.06933 4.86933,6.43867 Z "/>
	<path id="dp_path020" transform="matrix(1,0,0,1,150.247,12.1867)" fill="#1da660" fill-rule="evenodd" stroke="none" stroke-width="0" d="M 2.00267,0 C 3.10933,0 4.00533,0.896 4.00533,2.00267 C 4.00533,3.10933 3.10933,4.00533 2.00267,4.00533 C 0.896,4.00533 0,3.10933 0,2.00267 C 0,0.896 0.896,0 2.00267,0 Z "/>
	<path id="dp_path021" transform="matrix(1,0,0,1,91.232,19.5547)" fill="#1da660" fill-rule="evenodd" stroke="none" stroke-width="0" d="M 0,0 L 0.757333,0.1 L 4.12267,0.136 L 4.84,0 L 4.84,2.43333 L 4.13867,2.33467 L 0.670667,2.33467 L 0,2.43333 Z "/>
	<path id="dp_path022" transform="matrix(1,0,0,1,49.0133,27.4173)" fill="black" fill-rule="evenodd" stroke="none" stroke-width="0" d="M 0,3.344 L 0,0 L 0.664,0 L 1.45067,2.368 C 1.52267,2.588 1.576,2.752 1.60933,2.86267 C 1.64667,2.74 1.70667,2.56267 1.78667,2.32667 L 2.584,0 L 3.17867,0 L 3.17867,3.344 L 2.75333,3.344 L 2.75333,0.546667 L 1.78267,3.344 L 1.38667,3.344 L 0.426667,0.498667 L 0.426667,3.344 Z "/>
	<path id="dp_path023" transform="matrix(1,0,0,1,52.8347,28.336)" fill="black" fill-rule="evenodd" stroke="none" stroke-width="0" d="M 1.58667,2.42533 L 1.58667,2.068 C 1.39867,2.34133 1.144,2.48 0.822667,2.48 C 0.68,2.48 0.548,2.452 0.424,2.39733 C 0.301333,2.34133 0.209333,2.27333 0.149333,2.19067 C 0.0906667,2.108 0.048,2.00667 0.024,1.88667 C 0.008,1.80533 0,1.67733 0,1.50267 L 0,0 L 0.405333,0 L 0.405333,1.344 C 0.405333,1.55867 0.414667,1.704 0.430667,1.77867 C 0.456,1.88667 0.510667,1.97067 0.594667,2.032 C 0.677333,2.096 0.78,2.12533 0.902667,2.12533 C 1.02667,2.12533 1.14133,2.09333 1.248,2.03067 C 1.356,1.968 1.432,1.88267 1.47733,1.772 C 1.52133,1.664 1.544,1.50667 1.544,1.29867 L 1.544,0 L 1.95067,0 L 1.95067,2.42533 Z "/>
	<path id="dp_path024" transform="matrix(1,0,0,1,55.1987,27.4907)" fill="black" fill-rule="evenodd" stroke="none" stroke-width="0" d="M 1.12267,2.90267 L 1.17733,3.26533 C 1.06267,3.28933 0.96,3.30133 0.869333,3.30133 C 0.72,3.30133 0.606667,3.27867 0.524,3.23067 C 0.442667,3.18267 0.385333,3.12133 0.352,3.04533 C 0.318667,2.968 0.302667,2.80667 0.302667,2.56 L 0.302667,1.164 L 0,1.164 L 0,0.845333 L 0.302667,0.845333 L 0.302667,0.246667 L 0.708,0 L 0.708,0.845333 L 1.12267,0.845333 L 1.12267,1.164 L 0.708,1.164 L 0.708,2.584 C 0.708,2.70267 0.716,2.77733 0.730667,2.81067 C 0.745333,2.844 0.768,2.87067 0.801333,2.89067 C 0.834667,2.90933 0.881333,2.92 0.942667,2.92 C 0.988,2.92 1.048,2.91333 1.12267,2.90267 Z "/>
	<path id="dp_path025" transform="matrix(1,0,0,1,56.7133,28.336)" fill="black" fill-rule="evenodd" stroke="none" stroke-width="0" d="M 1.58667,2.42533 L 1.58667,2.068 C 1.39867,2.34133 1.144,2.48 0.822667,2.48 C 0.68,2.48 0.548,2.452 0.424,2.39733 C 0.301333,2.34133 0.209333,2.27333 0.149333,2.19067 C 0.0906667,2.108 0.048,2.00667 0.024,1.88667 C 0.008,1.80533 0,1.67733 0,1.50267 L 0,0 L 0.405333,0 L 0.405333,1.344 C 0.405333,1.55867 0.414667,1.704 0.430667,1.77867 C 0.456,1.88667 0.510667,1.97067 0.594667,2.032 C 0.677333,2.096 0.78,2.12533 0.902667,2.12533 C 1.02667,2.12533 1.14133,2.09333 1.248,2.03067 C 1.356,1.968 1.432,1.88267 1.47733,1.772 C 1.52133,1.664 1.544,1.50667 1.544,1.29867 L 1.544,0 L 1.95067,0 L 1.95067,2.42533 Z "/>
	<path id="dp_path026" transform="matrix(1,0,0,1,59.1747,28.2827)" fill="black" fill-rule="evenodd" stroke="none" stroke-width="0" d="M 1.784,1.696 L 2.204,1.75067 C 2.13733,1.99867 2.01467,2.19067 1.83467,2.328 C 1.656,2.46533 1.42533,2.53333 1.14667,2.53333 C 0.794667,2.53333 0.514667,2.424 0.309333,2.20533 C 0.102667,1.98667 0,1.68133 0,1.28667 C 0,0.878667 0.104,0.562667 0.312,0.337333 C 0.521333,0.110667 0.790667,0 1.124,0 C 1.44533,0 1.708,0.109333 1.912,0.329333 C 2.116,0.549333 2.21733,0.86 2.21733,1.26 C 2.21733,1.284 2.21733,1.32 2.216,1.36933 L 0.417333,1.36933 C 0.433333,1.63467 0.508,1.84 0.642667,1.98267 C 0.777333,2.12267 0.945333,2.19467 1.148,2.19467 C 1.29733,2.19467 1.42533,2.15467 1.532,2.076 C 1.63733,1.996 1.72133,1.86933 1.784,1.696 Z M 0.441333,1.03067 L 1.788,1.03067 C 1.76933,0.828 1.71867,0.676 1.63333,0.573333 C 1.50267,0.417333 1.33467,0.337333 1.12667,0.337333 C 0.938667,0.337333 0.781333,0.4 0.653333,0.526667 C 0.525333,0.650667 0.454667,0.82 0.441333,1.03067 Z "/>
	<path id="dp_path027" transform="matrix(1,0,0,1,61.892,27.4173)" fill="black" fill-rule="evenodd" stroke="none" stroke-width="0" d="M 0,3.344 L 0,0 L 0.405333,0 L 0.405333,3.344 Z "/>
	<path id="dp_path028" transform="matrix(1,0,0,1,62.9213,27.4173)" fill="black" fill-rule="evenodd" stroke="none" stroke-width="0" d="M 0,3.344 L 0,0 L 0.405333,0 L 0.405333,3.344 Z "/>
	<path id="dp_path029" transform="matrix(1,0,0,1,63.8227,28.2827)" fill="black" fill-rule="evenodd" stroke="none" stroke-width="0" d="M 1.784,1.696 L 2.204,1.75067 C 2.13733,1.99867 2.01467,2.19067 1.83467,2.328 C 1.656,2.46533 1.42533,2.53333 1.14667,2.53333 C 0.794667,2.53333 0.514667,2.424 0.309333,2.20533 C 0.102667,1.98667 0,1.68133 0,1.28667 C 0,0.878667 0.104,0.562667 0.312,0.337333 C 0.521333,0.110667 0.790667,0 1.124,0 C 1.44533,0 1.708,0.109333 1.912,0.329333 C 2.116,0.549333 2.21733,0.86 2.21733,1.26 C 2.21733,1.284 2.21733,1.32 2.216,1.36933 L 0.417333,1.36933 C 0.433333,1.63467 0.508,1.84 0.642667,1.98267 C 0.777333,2.12267 0.945333,2.19467 1.148,2.19467 C 1.29733,2.19467 1.42533,2.15467 1.532,2.076 C 1.63733,1.996 1.72133,1.86933 1.784,1.696 Z M 0.441333,1.03067 L 1.788,1.03067 C 1.76933,0.828 1.71867,0.676 1.63333,0.573333 C 1.50267,0.417333 1.33467,0.337333 1.12667,0.337333 C 0.938667,0.337333 0.781333,0.4 0.653333,0.526667 C 0.525333,0.650667 0.454667,0.82 0.441333,1.03067 Z "/>
	<path id="dp_path030" transform="matrix(1,0,0,1,67.684,27.4173)" fill="black" fill-rule="evenodd" stroke="none" stroke-width="0" d="M 1.71067,3.344 L 1.71067,3.03733 C 1.55867,3.27867 1.33333,3.39867 1.03733,3.39867 C 0.845333,3.39867 0.668,3.34533 0.506667,3.23733 C 0.346667,3.132 0.221333,2.98267 0.133333,2.79333 C 0.044,2.60133 0,2.38133 0,2.13333 C 0,1.892 0.04,1.672 0.12,1.47467 C 0.201333,1.27867 0.321333,1.12667 0.481333,1.02133 C 0.641333,0.917333 0.821333,0.865333 1.01867,0.865333 C 1.164,0.865333 1.29333,0.896 1.40667,0.956 C 1.52133,1.01733 1.61333,1.09733 1.684,1.196 L 1.684,0 L 2.09067,0 L 2.09067,3.344 Z M 0.418667,2.132 C 0.418667,2.44267 0.484,2.67467 0.614667,2.82933 C 0.745333,2.98267 0.9,3.06 1.07733,3.06 C 1.25733,3.06 1.40933,2.98533 1.53467,2.84 C 1.66,2.692 1.72267,2.468 1.72267,2.16667 C 1.72267,1.83467 1.65867,1.592 1.53067,1.436 C 1.404,1.28133 1.24667,1.20267 1.05867,1.20267 C 0.876,1.20267 0.724,1.27867 0.601333,1.42667 C 0.48,1.576 0.418667,1.812 0.418667,2.132 Z "/>
	<path id="dp_path031" transform="matrix(1,0,0,1,70.3653,27.3827)" fill="black" fill-rule="evenodd" stroke="none" stroke-width="0" d="M 0.0346667,0.474667 L 0.0346667,0 L 0.472,0 L 0.472,0.378667 C 0.472,0.581333 0.449333,0.726667 0.402667,0.817333 C 0.337333,0.938667 0.237333,1.03067 0.1,1.09467 L 0,0.932 C 0.0813333,0.898667 0.141333,0.846667 0.181333,0.773333 C 0.221333,0.701333 0.242667,0.601333 0.248,0.474667 Z "/>
	<path id="dp_path032" transform="matrix(1,0,0,1,71.5147,27.4173)" fill="black" fill-rule="evenodd" stroke="none" stroke-width="0" d="M 0,3.344 L 0,0 L 2.404,0 L 2.404,0.393333 L 0.441333,0.393333 L 0.441333,1.41733 L 2.28,1.41733 L 2.28,1.81067 L 0.441333,1.81067 L 0.441333,2.95067 L 2.48133,2.95067 L 2.48133,3.344 Z "/>
	<path id="dp_path033" transform="matrix(1,0,0,1,74.5493,28.2827)" fill="black" fill-rule="evenodd" stroke="none" stroke-width="0" d="M 0,3.40533 L 0,0.0533333 L 0.372,0.0533333 L 0.372,0.369333 C 0.46,0.246667 0.558667,0.153333 0.669333,0.092 C 0.78,0.0306667 0.913333,0 1.07067,0 C 1.276,0 1.45733,0.052 1.61467,0.16 C 1.772,0.265333 1.89067,0.416 1.97067,0.609333 C 2.05067,0.804 2.09067,1.01733 2.09067,1.248 C 2.09067,1.496 2.04667,1.72 1.95867,1.91867 C 1.86933,2.116 1.74133,2.26933 1.572,2.37333 C 1.404,2.48 1.22667,2.53333 1.04,2.53333 C 0.904,2.53333 0.781333,2.504 0.673333,2.44667 C 0.565333,2.388 0.476,2.31467 0.406667,2.22667 L 0.406667,3.40533 Z M 0.368,1.28 C 0.368,1.59067 0.430667,1.82133 0.556,1.97067 C 0.682667,2.12 0.833333,2.19467 1.01333,2.19467 C 1.19333,2.19467 1.34933,2.11733 1.47867,1.96267 C 1.608,1.808 1.67333,1.56933 1.67333,1.24667 C 1.67333,0.937333 1.60933,0.706667 1.484,0.552 C 1.35733,0.398667 1.20667,0.322667 1.03067,0.322667 C 0.857333,0.322667 0.702667,0.404 0.569333,0.566667 C 0.434667,0.730667 0.368,0.969333 0.368,1.28 Z "/>
	<path id="dp_path034" transform="matrix(1,0,0,1,77,28.2827)" fill="black" fill-rule="evenodd" stroke="none" stroke-width="0" d="M 1.71467,2.176 C 1.564,2.30533 1.41733,2.39867 1.27733,2.452 C 1.13733,2.50667 0.986667,2.53333 0.825333,2.53333 C 0.56,2.53333 0.356,2.468 0.213333,2.33733 C 0.0706667,2.208 0,2.04133 0,1.84 C 0,1.72133 0.0266667,1.612 0.0813333,1.51467 C 0.134667,1.41733 0.205333,1.33733 0.292,1.27867 C 0.38,1.22 0.477333,1.17467 0.586667,1.144 C 0.666667,1.12267 0.789333,1.10133 0.950667,1.08267 C 1.28133,1.04267 1.52533,0.996 1.68133,0.941333 C 1.68267,0.884 1.684,0.848 1.684,0.833333 C 1.684,0.665333 1.64533,0.546667 1.568,0.478667 C 1.46267,0.384 1.30667,0.337333 1.1,0.337333 C 0.906667,0.337333 0.764,0.370667 0.672,0.44 C 0.58,0.508 0.512,0.628 0.468,0.801333 L 0.0693333,0.746667 C 0.105333,0.574667 0.165333,0.436 0.249333,0.329333 C 0.333333,0.224 0.453333,0.141333 0.610667,0.084 C 0.768,0.028 0.950667,0 1.15867,0 C 1.36533,0 1.53333,0.024 1.66267,0.072 C 1.79067,0.12 1.88533,0.182667 1.94667,0.256 C 2.00667,0.329333 2.04933,0.424 2.07333,0.536 C 2.08667,0.605333 2.09467,0.732 2.09467,0.914667 L 2.09467,1.46267 C 2.09467,1.84267 2.10267,2.084 2.11867,2.18667 C 2.136,2.288 2.16933,2.38533 2.21733,2.47867 L 1.792,2.47867 C 1.752,2.392 1.72667,2.29067 1.71467,2.176 Z M 1.68,1.264 C 1.532,1.324 1.308,1.376 1.012,1.41867 C 0.844,1.44267 0.725333,1.47067 0.654667,1.5 C 0.585333,1.53067 0.532,1.57467 0.494667,1.63333 C 0.456,1.692 0.437333,1.75733 0.437333,1.828 C 0.437333,1.93733 0.478667,2.028 0.561333,2.1 C 0.644,2.17467 0.765333,2.21067 0.924,2.21067 C 1.08133,2.21067 1.22133,2.176 1.34533,2.10533 C 1.468,2.03733 1.55733,1.94267 1.616,1.82267 C 1.66,1.73067 1.68133,1.59333 1.68133,1.41467 Z "/>
	<path id="dp_path035" transform="matrix(1,0,0,1,79.7227,28.2827)" fill="black" fill-rule="evenodd" stroke="none" stroke-width="0" d="M 0,2.47867 L 0,0.0533333 L 0.364,0.0533333 L 0.364,0.421333 C 0.458667,0.249333 0.545333,0.136 0.625333,0.0813333 C 0.705333,0.0266667 0.792,0 0.888,0 C 1.02667,0 1.16667,0.0426667 1.30933,0.130667 L 1.168,0.510667 C 1.068,0.453333 0.968,0.424 0.868,0.424 C 0.778667,0.424 0.698667,0.450667 0.628,0.504 C 0.556,0.558667 0.505333,0.633333 0.474667,0.729333 C 0.429333,0.874667 0.406667,1.03467 0.406667,1.20933 L 0.406667,2.47867 Z "/>
	<path id="dp_path036" transform="matrix(1,0,0,1,81.1213,28.2827)" fill="black" fill-rule="evenodd" stroke="none" stroke-width="0" d="M 0.0813333,2.67733 L 0.48,2.732 C 0.496,2.856 0.541333,2.948 0.617333,3.00533 C 0.718667,3.08133 0.856,3.12 1.032,3.12 C 1.22,3.12 1.36667,3.08267 1.46933,3.00667 C 1.572,2.932 1.64133,2.824 1.67733,2.68933 C 1.69867,2.60533 1.708,2.43067 1.70667,2.164 C 1.528,2.37333 1.30667,2.47867 1.04,2.47867 C 0.709333,2.47867 0.453333,2.35733 0.270667,2.11733 C 0.0906667,1.876 0,1.588 0,1.252 C 0,1.02133 0.0413333,0.808 0.124,0.612 C 0.208,0.417333 0.328,0.265333 0.485333,0.16 C 0.644,0.052 0.829333,0 1.04267,0 C 1.32667,0 1.56133,0.116 1.74533,0.349333 L 1.74533,0.0533333 L 2.12133,0.0533333 L 2.12133,2.14667 C 2.12133,2.52533 2.08267,2.792 2.00667,2.94933 C 1.93067,3.10667 1.80933,3.232 1.644,3.32133 C 1.47867,3.41467 1.27467,3.46 1.03333,3.46 C 0.745333,3.46 0.513333,3.39467 0.337333,3.264 C 0.16,3.13333 0.0746667,2.93867 0.0813333,2.67733 Z M 0.417333,1.22267 C 0.417333,1.54133 0.48,1.77333 0.606667,1.92133 C 0.732,2.06667 0.889333,2.13867 1.07867,2.13867 C 1.26667,2.13867 1.42267,2.06667 1.55067,1.92267 C 1.67733,1.776 1.74133,1.548 1.74133,1.23733 C 1.74133,0.94 1.676,0.716 1.54533,0.564 C 1.41467,0.413333 1.256,0.337333 1.072,0.337333 C 0.889333,0.337333 0.736,0.413333 0.608,0.561333 C 0.481333,0.709333 0.417333,0.930667 0.417333,1.22267 Z "/>
	<path id="dp_path037" transform="matrix(1,0,0,1,83.8653,28.2827)" fill="black" fill-rule="evenodd" stroke="none" stroke-width="0" d="M 0,2.47867 L 0,0.0533333 L 0.364,0.0533333 L 0.364,0.397333 C 0.541333,0.132 0.797333,0 1.132,0 C 1.27733,0 1.41067,0.0253333 1.532,0.0773333 C 1.65333,0.129333 1.74533,0.2 1.80533,0.284 C 1.86533,0.369333 1.908,0.470667 1.932,0.588 C 1.948,0.665333 1.956,0.797333 1.956,0.988 L 1.956,2.47867 L 1.54933,2.47867 L 1.54933,1.00267 C 1.54933,0.834667 1.53333,0.709333 1.50133,0.626667 C 1.46933,0.542667 1.41333,0.477333 1.332,0.428 C 1.25067,0.377333 1.156,0.353333 1.04667,0.353333 C 0.873333,0.353333 0.722667,0.409333 0.596,0.52 C 0.470667,0.630667 0.406667,0.841333 0.406667,1.15333 L 0.406667,2.47867 Z "/>
	<path id="dp_path038" transform="matrix(1,0,0,1,86.3213,28.2827)" fill="black" fill-rule="evenodd" stroke="none" stroke-width="0" d="M 1.784,1.696 L 2.204,1.75067 C 2.13733,1.99867 2.01467,2.19067 1.83467,2.328 C 1.656,2.46533 1.42533,2.53333 1.14667,2.53333 C 0.794667,2.53333 0.514667,2.424 0.309333,2.20533 C 0.102667,1.98667 0,1.68133 0,1.28667 C 0,0.878667 0.104,0.562667 0.312,0.337333 C 0.521333,0.110667 0.790667,0 1.124,0 C 1.44533,0 1.708,0.109333 1.912,0.329333 C 2.116,0.549333 2.21733,0.86 2.21733,1.26 C 2.21733,1.284 2.21733,1.32 2.216,1.36933 L 0.417333,1.36933 C 0.433333,1.63467 0.508,1.84 0.642667,1.98267 C 0.777333,2.12267 0.945333,2.19467 1.148,2.19467 C 1.29733,2.19467 1.42533,2.15467 1.532,2.076 C 1.63733,1.996 1.72133,1.86933 1.784,1.696 Z M 0.441333,1.03067 L 1.788,1.03067 C 1.76933,0.828 1.71867,0.676 1.63333,0.573333 C 1.50267,0.417333 1.33467,0.337333 1.12667,0.337333 C 0.938667,0.337333 0.781333,0.4 0.653333,0.526667 C 0.525333,0.650667 0.454667,0.82 0.441333,1.03067 Z "/>
	<path id="dp_path039" transform="matrix(1,0,0,1,90.1987,28.2827)" fill="black" fill-rule="evenodd" stroke="none" stroke-width="0" d="M 1.784,1.696 L 2.204,1.75067 C 2.13733,1.99867 2.01467,2.19067 1.83467,2.328 C 1.656,2.46533 1.42533,2.53333 1.14667,2.53333 C 0.794667,2.53333 0.514667,2.424 0.309333,2.20533 C 0.102667,1.98667 0,1.68133 0,1.28667 C 0,0.878667 0.104,0.562667 0.312,0.337333 C 0.521333,0.110667 0.790667,0 1.124,0 C 1.44533,0 1.708,0.109333 1.912,0.329333 C 2.116,0.549333 2.21733,0.86 2.21733,1.26 C 2.21733,1.284 2.21733,1.32 2.216,1.36933 L 0.417333,1.36933 C 0.433333,1.63467 0.508,1.84 0.642667,1.98267 C 0.777333,2.12267 0.945333,2.19467 1.148,2.19467 C 1.29733,2.19467 1.42533,2.15467 1.532,2.076 C 1.63733,1.996 1.72133,1.86933 1.784,1.696 Z M 0.441333,1.03067 L 1.788,1.03067 C 1.76933,0.828 1.71867,0.676 1.63333,0.573333 C 1.50267,0.417333 1.33467,0.337333 1.12667,0.337333 C 0.938667,0.337333 0.781333,0.4 0.653333,0.526667 C 0.525333,0.650667 0.454667,0.82 0.441333,1.03067 Z "/>
	<path id="dp_path040" transform="matrix(1,0,0,1,92.6907,27.4907)" fill="black" fill-rule="evenodd" stroke="none" stroke-width="0" d="M 1.12267,2.90267 L 1.17733,3.26533 C 1.06267,3.28933 0.96,3.30133 0.869333,3.30133 C 0.72,3.30133 0.606667,3.27867 0.524,3.23067 C 0.442667,3.18267 0.385333,3.12133 0.352,3.04533 C 0.318667,2.968 0.302667,2.80667 0.302667,2.56 L 0.302667,1.164 L 0,1.164 L 0,0.845333 L 0.302667,0.845333 L 0.302667,0.246667 L 0.708,0 L 0.708,0.845333 L 1.12267,0.845333 L 1.12267,1.164 L 0.708,1.164 L 0.708,2.584 C 0.708,2.70267 0.716,2.77733 0.730667,2.81067 C 0.745333,2.844 0.768,2.87067 0.801333,2.89067 C 0.834667,2.90933 0.881333,2.92 0.942667,2.92 C 0.988,2.92 1.048,2.91333 1.12267,2.90267 Z "/>
	<path id="dp_path041" transform="matrix(1,0,0,1,95.3493,27.4173)" fill="black" fill-rule="evenodd" stroke="none" stroke-width="0" d="M 1.71067,3.344 L 1.71067,3.03733 C 1.55867,3.27867 1.33333,3.39867 1.03733,3.39867 C 0.845333,3.39867 0.668,3.34533 0.506667,3.23733 C 0.346667,3.132 0.221333,2.98267 0.133333,2.79333 C 0.044,2.60133 0,2.38133 0,2.13333 C 0,1.892 0.04,1.672 0.12,1.47467 C 0.201333,1.27867 0.321333,1.12667 0.481333,1.02133 C 0.641333,0.917333 0.821333,0.865333 1.01867,0.865333 C 1.164,0.865333 1.29333,0.896 1.40667,0.956 C 1.52133,1.01733 1.61333,1.09733 1.684,1.196 L 1.684,0 L 2.09067,0 L 2.09067,3.344 Z M 0.418667,2.132 C 0.418667,2.44267 0.484,2.67467 0.614667,2.82933 C 0.745333,2.98267 0.9,3.06 1.07733,3.06 C 1.25733,3.06 1.40933,2.98533 1.53467,2.84 C 1.66,2.692 1.72267,2.468 1.72267,2.16667 C 1.72267,1.83467 1.65867,1.592 1.53067,1.436 C 1.404,1.28133 1.24667,1.20267 1.05867,1.20267 C 0.876,1.20267 0.724,1.27867 0.601333,1.42667 C 0.48,1.576 0.418667,1.812 0.418667,2.132 Z "/>
	<path id="dp_path042" transform="matrix(1,0,0,1,97.9533,28.2827)" fill="black" fill-rule="evenodd" stroke="none" stroke-width="0" d="M 1.784,1.696 L 2.204,1.75067 C 2.13733,1.99867 2.01467,2.19067 1.83467,2.328 C 1.656,2.46533 1.42533,2.53333 1.14667,2.53333 C 0.794667,2.53333 0.514667,2.424 0.309333,2.20533 C 0.102667,1.98667 0,1.68133 0,1.28667 C 0,0.878667 0.104,0.562667 0.312,0.337333 C 0.521333,0.110667 0.790667,0 1.124,0 C 1.44533,0 1.708,0.109333 1.912,0.329333 C 2.116,0.549333 2.21733,0.86 2.21733,1.26 C 2.21733,1.284 2.21733,1.32 2.216,1.36933 L 0.417333,1.36933 C 0.433333,1.63467 0.508,1.84 0.642667,1.98267 C 0.777333,2.12267 0.945333,2.19467 1.148,2.19467 C 1.29733,2.19467 1.42533,2.15467 1.532,2.076 C 1.63733,1.996 1.72133,1.86933 1.784,1.696 Z M 0.441333,1.03067 L 1.788,1.03067 C 1.76933,0.828 1.71867,0.676 1.63333,0.573333 C 1.50267,0.417333 1.33467,0.337333 1.12667,0.337333 C 0.938667,0.337333 0.781333,0.4 0.653333,0.526667 C 0.525333,0.650667 0.454667,0.82 0.441333,1.03067 Z "/>
	<path id="dp_path043" transform="matrix(1,0,0,1,101.892,27.3587)" fill="black" fill-rule="evenodd" stroke="none" stroke-width="0" d="M 2.50133,2.228 L 2.94267,2.34133 C 2.85067,2.704 2.684,2.98 2.444,3.17067 C 2.204,3.36267 1.91067,3.45733 1.564,3.45733 C 1.20533,3.45733 0.913333,3.384 0.689333,3.23733 C 0.464,3.09067 0.293333,2.87867 0.176,2.6 C 0.0586667,2.32133 0,2.02267 0,1.704 C 0,1.356 0.0666667,1.052 0.198667,0.792 C 0.330667,0.533333 0.52,0.337333 0.764,0.202667 C 1.008,0.068 1.27733,0 1.57067,0 C 1.90267,0 2.18267,0.0853333 2.41067,0.256 C 2.63733,0.426667 2.79467,0.665333 2.884,0.973333 L 2.45067,1.076 C 2.37333,0.832 2.26133,0.656 2.11467,0.544 C 1.968,0.434667 1.78267,0.378667 1.56133,0.378667 C 1.30533,0.378667 1.092,0.44 0.92,0.562667 C 0.748,0.686667 0.628,0.852 0.557333,1.05867 C 0.488,1.26667 0.453333,1.48133 0.453333,1.70133 C 0.453333,1.98533 0.494667,2.23333 0.577333,2.44667 C 0.66,2.65867 0.788,2.816 0.961333,2.92267 C 1.136,3.02667 1.324,3.08 1.52667,3.08 C 1.77333,3.08 1.98267,3.008 2.15333,2.86533 C 2.32533,2.72133 2.44,2.50933 2.50133,2.228 Z "/>
	<path id="dp_path044" transform="matrix(1,0,0,1,105.319,28.2827)" fill="black" fill-rule="evenodd" stroke="none" stroke-width="0" d="M 0,2.47867 L 0,0.0533333 L 0.364,0.0533333 L 0.364,0.421333 C 0.458667,0.249333 0.545333,0.136 0.625333,0.0813333 C 0.705333,0.0266667 0.792,0 0.888,0 C 1.02667,0 1.16667,0.0426667 1.30933,0.130667 L 1.168,0.510667 C 1.068,0.453333 0.968,0.424 0.868,0.424 C 0.778667,0.424 0.698667,0.450667 0.628,0.504 C 0.556,0.558667 0.505333,0.633333 0.474667,0.729333 C 0.429333,0.874667 0.406667,1.03467 0.406667,1.20933 L 0.406667,2.47867 Z "/>
	<path id="dp_path045" transform="matrix(1,0,0,1,106.737,27.3987)" fill="black" fill-rule="evenodd" stroke="none" stroke-width="0" d="M 1.784,2.58 L 2.204,2.63467 C 2.13733,2.88267 2.01467,3.07467 1.83467,3.212 C 1.656,3.34933 1.42533,3.41733 1.14667,3.41733 C 0.794667,3.41733 0.514667,3.308 0.309333,3.08933 C 0.102667,2.87067 0,2.56533 0,2.17067 C 0,1.76267 0.104,1.44667 0.312,1.22133 C 0.521333,0.994667 0.790667,0.884 1.124,0.884 C 1.44533,0.884 1.708,0.993333 1.912,1.21333 C 2.116,1.43333 2.21733,1.744 2.21733,2.144 C 2.21733,2.168 2.21733,2.204 2.216,2.25333 L 0.417333,2.25333 C 0.433333,2.51867 0.508,2.724 0.642667,2.86667 C 0.777333,3.00667 0.945333,3.07867 1.148,3.07867 C 1.29733,3.07867 1.42533,3.03867 1.532,2.96 C 1.63733,2.88 1.72133,2.75333 1.784,2.58 Z M 0.441333,1.91467 L 1.788,1.91467 C 1.76933,1.712 1.71867,1.56 1.63333,1.45733 C 1.50267,1.30133 1.33467,1.22133 1.12667,1.22133 C 0.938667,1.22133 0.781333,1.284 0.653333,1.41067 C 0.525333,1.53467 0.454667,1.704 0.441333,1.91467 Z M 0.785333,0.638667 L 1.084,0 L 1.62133,0 L 1.12267,0.638667 Z "/>
	<path id="dp_path046" transform="matrix(1,0,0,1,109.311,27.4173)" fill="black" fill-rule="evenodd" stroke="none" stroke-width="0" d="M 1.71067,3.344 L 1.71067,3.03733 C 1.55867,3.27867 1.33333,3.39867 1.03733,3.39867 C 0.845333,3.39867 0.668,3.34533 0.506667,3.23733 C 0.346667,3.132 0.221333,2.98267 0.133333,2.79333 C 0.044,2.60133 0,2.38133 0,2.13333 C 0,1.892 0.04,1.672 0.12,1.47467 C 0.201333,1.27867 0.321333,1.12667 0.481333,1.02133 C 0.641333,0.917333 0.821333,0.865333 1.01867,0.865333 C 1.164,0.865333 1.29333,0.896 1.40667,0.956 C 1.52133,1.01733 1.61333,1.09733 1.684,1.196 L 1.684,0 L 2.09067,0 L 2.09067,3.344 Z M 0.418667,2.132 C 0.418667,2.44267 0.484,2.67467 0.614667,2.82933 C 0.745333,2.98267 0.9,3.06 1.07733,3.06 C 1.25733,3.06 1.40933,2.98533 1.53467,2.84 C 1.66,2.692 1.72267,2.468 1.72267,2.16667 C 1.72267,1.83467 1.65867,1.592 1.53067,1.436 C 1.404,1.28133 1.24667,1.20267 1.05867,1.20267 C 0.876,1.20267 0.724,1.27867 0.601333,1.42667 C 0.48,1.576 0.418667,1.812 0.418667,2.132 Z "/>
	<path id="dp_path047" transform="matrix(1,0,0,1,112.053,27.4173)" fill="black" fill-rule="evenodd" stroke="none" stroke-width="0" d="M 0,0.466667 L 0,0 L 0.406667,0 L 0.406667,0.466667 Z M 0,3.344 L 0,0.918667 L 0.406667,0.918667 L 0.406667,3.344 Z "/>
	<path id="dp_path048" transform="matrix(1,0,0,1,112.847,27.4907)" fill="black" fill-rule="evenodd" stroke="none" stroke-width="0" d="M 1.12267,2.90267 L 1.17733,3.26533 C 1.06267,3.28933 0.96,3.30133 0.869333,3.30133 C 0.72,3.30133 0.606667,3.27867 0.524,3.23067 C 0.442667,3.18267 0.385333,3.12133 0.352,3.04533 C 0.318667,2.968 0.302667,2.80667 0.302667,2.56 L 0.302667,1.164 L 0,1.164 L 0,0.845333 L 0.302667,0.845333 L 0.302667,0.246667 L 0.708,0 L 0.708,0.845333 L 1.12267,0.845333 L 1.12267,1.164 L 0.708,1.164 L 0.708,2.584 C 0.708,2.70267 0.716,2.77733 0.730667,2.81067 C 0.745333,2.844 0.768,2.87067 0.801333,2.89067 C 0.834667,2.90933 0.881333,2.92 0.942667,2.92 C 0.988,2.92 1.048,2.91333 1.12267,2.90267 Z "/>
	<path id="dp_path049" transform="matrix(1,0,0,1,115.424,28.336)" fill="black" fill-rule="evenodd" stroke="none" stroke-width="0" d="M 0.213333,3.35733 L 0.166667,2.976 C 0.256,3 0.333333,3.012 0.4,3.012 C 0.492,3.012 0.564,2.99733 0.618667,2.96667 C 0.673333,2.936 0.717333,2.89467 0.752,2.83867 C 0.778667,2.79733 0.82,2.696 0.877333,2.532 C 0.885333,2.50933 0.897333,2.476 0.913333,2.432 L 0,0 L 0.44,0 L 0.94,1.4 C 1.00533,1.576 1.06267,1.76267 1.11467,1.95867 C 1.16267,1.77467 1.21867,1.59333 1.284,1.41467 L 1.8,0 L 2.20933,0 L 1.292,2.46533 C 1.19467,2.73067 1.11733,2.91467 1.06267,3.01467 C 0.990667,3.14933 0.906667,3.248 0.813333,3.31067 C 0.718667,3.37467 0.606667,3.40667 0.477333,3.40667 C 0.397333,3.40667 0.309333,3.38933 0.213333,3.35733 Z "/>
	<path id="dp_path050" transform="matrix(1,0,0,1,117.847,28.2827)" fill="black" fill-rule="evenodd" stroke="none" stroke-width="0" d="M 1.71467,2.176 C 1.564,2.30533 1.41733,2.39867 1.27733,2.452 C 1.13733,2.50667 0.986667,2.53333 0.825333,2.53333 C 0.56,2.53333 0.356,2.468 0.213333,2.33733 C 0.0706667,2.208 0,2.04133 0,1.84 C 0,1.72133 0.0266667,1.612 0.0813333,1.51467 C 0.134667,1.41733 0.205333,1.33733 0.292,1.27867 C 0.38,1.22 0.477333,1.17467 0.586667,1.144 C 0.666667,1.12267 0.789333,1.10133 0.950667,1.08267 C 1.28133,1.04267 1.52533,0.996 1.68133,0.941333 C 1.68267,0.884 1.684,0.848 1.684,0.833333 C 1.684,0.665333 1.64533,0.546667 1.568,0.478667 C 1.46267,0.384 1.30667,0.337333 1.1,0.337333 C 0.906667,0.337333 0.764,0.370667 0.672,0.44 C 0.58,0.508 0.512,0.628 0.468,0.801333 L 0.0693333,0.746667 C 0.105333,0.574667 0.165333,0.436 0.249333,0.329333 C 0.333333,0.224 0.453333,0.141333 0.610667,0.084 C 0.768,0.028 0.950667,0 1.15867,0 C 1.36533,0 1.53333,0.024 1.66267,0.072 C 1.79067,0.12 1.88533,0.182667 1.94667,0.256 C 2.00667,0.329333 2.04933,0.424 2.07333,0.536 C 2.08667,0.605333 2.09467,0.732 2.09467,0.914667 L 2.09467,1.46267 C 2.09467,1.84267 2.10267,2.084 2.11867,2.18667 C 2.136,2.288 2.16933,2.38533 2.21733,2.47867 L 1.792,2.47867 C 1.752,2.392 1.72667,2.29067 1.71467,2.176 Z M 1.68,1.264 C 1.532,1.324 1.308,1.376 1.012,1.41867 C 0.844,1.44267 0.725333,1.47067 0.654667,1.5 C 0.585333,1.53067 0.532,1.57467 0.494667,1.63333 C 0.456,1.692 0.437333,1.75733 0.437333,1.828 C 0.437333,1.93733 0.478667,2.028 0.561333,2.1 C 0.644,2.17467 0.765333,2.21067 0.924,2.21067 C 1.08133,2.21067 1.22133,2.176 1.34533,2.10533 C 1.468,2.03733 1.55733,1.94267 1.616,1.82267 C 1.66,1.73067 1.68133,1.59333 1.68133,1.41467 Z "/>
	<path id="dp_path051" transform="matrix(1,0,0,1,121.896,27.4173)" fill="black" fill-rule="evenodd" stroke="none" stroke-width="0" d="M 0,3.344 L 0,0 L 0.441333,0 L 0.441333,1.65333 L 2.09067,0 L 2.68667,0 L 1.29333,1.356 L 2.74933,3.344 L 2.168,3.344 L 0.985333,1.656 L 0.441333,2.184 L 0.441333,3.344 Z "/>
	<path id="dp_path052" transform="matrix(1,0,0,1,124.808,28.2827)" fill="black" fill-rule="evenodd" stroke="none" stroke-width="0" d="M 0,1.26667 C 0,0.817333 0.124,0.485333 0.372,0.268 C 0.578667,0.0893333 0.830667,0 1.128,0 C 1.45867,0 1.728,0.108 1.93867,0.326667 C 2.148,0.545333 2.25333,0.846667 2.25333,1.232 C 2.25333,1.544 2.20667,1.78933 2.11333,1.968 C 2.02133,2.14667 1.88533,2.28533 1.708,2.384 C 1.53067,2.484 1.33733,2.53333 1.128,2.53333 C 0.790667,2.53333 0.518667,2.424 0.312,2.20667 C 0.104,1.98933 0,1.676 0,1.26667 Z M 0.418667,1.26533 C 0.418667,1.57467 0.485333,1.808 0.62,1.96267 C 0.754667,2.116 0.924,2.19467 1.128,2.19467 C 1.33067,2.19467 1.49867,2.116 1.63333,1.96133 C 1.768,1.80667 1.83467,1.56933 1.83467,1.252 C 1.83467,0.952 1.768,0.724 1.632,0.569333 C 1.49733,0.416 1.32933,0.337333 1.128,0.337333 C 0.924,0.337333 0.754667,0.416 0.62,0.568 C 0.485333,0.722667 0.418667,0.954667 0.418667,1.26533 Z "/>
	<path id="dp_path053" transform="matrix(1,0,0,1,127.548,28.2827)" fill="black" fill-rule="evenodd" stroke="none" stroke-width="0" d="M 0,2.47867 L 0,0.0533333 L 0.364,0.0533333 L 0.364,0.392 C 0.438667,0.274667 0.54,0.18 0.665333,0.106667 C 0.790667,0.0346667 0.934667,0 1.09467,0 C 1.27333,0 1.41867,0.036 1.53333,0.110667 C 1.648,0.185333 1.728,0.288 1.77467,0.422667 C 1.96667,0.14 2.216,0 2.52267,0 C 2.76267,0 2.948,0.0653333 3.07733,0.2 C 3.20533,0.332 3.27067,0.537333 3.27067,0.814667 L 3.27067,2.47867 L 2.864,2.47867 L 2.864,0.950667 C 2.864,0.785333 2.85067,0.666667 2.824,0.593333 C 2.79733,0.521333 2.74933,0.464 2.67867,0.42 C 2.60933,0.374667 2.52667,0.353333 2.432,0.353333 C 2.26133,0.353333 2.12,0.410667 2.008,0.524 C 1.89467,0.636 1.83867,0.818667 1.83867,1.068 L 1.83867,2.47867 L 1.432,2.47867 L 1.432,0.901333 C 1.432,0.718667 1.39867,0.581333 1.332,0.490667 C 1.26533,0.398667 1.156,0.353333 1.004,0.353333 C 0.889333,0.353333 0.782667,0.382667 0.685333,0.445333 C 0.586667,0.505333 0.516,0.594667 0.472,0.712 C 0.428,0.829333 0.406667,0.998667 0.406667,1.22 L 0.406667,2.47867 Z "/>
	<path id="dp_path054" transform="matrix(1,0,0,1,131.26,28.2827)" fill="black" fill-rule="evenodd" stroke="none" stroke-width="0" d="M 0,1.26667 C 0,0.817333 0.124,0.485333 0.372,0.268 C 0.578667,0.0893333 0.830667,0 1.128,0 C 1.45867,0 1.728,0.108 1.93867,0.326667 C 2.148,0.545333 2.25333,0.846667 2.25333,1.232 C 2.25333,1.544 2.20667,1.78933 2.11333,1.968 C 2.02133,2.14667 1.88533,2.28533 1.708,2.384 C 1.53067,2.484 1.33733,2.53333 1.128,2.53333 C 0.790667,2.53333 0.518667,2.424 0.312,2.20667 C 0.104,1.98933 0,1.676 0,1.26667 Z M 0.418667,1.26533 C 0.418667,1.57467 0.485333,1.808 0.62,1.96267 C 0.754667,2.116 0.924,2.19467 1.128,2.19467 C 1.33067,2.19467 1.49867,2.116 1.63333,1.96133 C 1.768,1.80667 1.83467,1.56933 1.83467,1.252 C 1.83467,0.952 1.768,0.724 1.632,0.569333 C 1.49733,0.416 1.32933,0.337333 1.128,0.337333 C 0.924,0.337333 0.754667,0.416 0.62,0.568 C 0.485333,0.722667 0.418667,0.954667 0.418667,1.26533 Z "/>
	<path id="dp_path055" transform="matrix(1,0,0,1,133.995,28.2827)" fill="black" fill-rule="evenodd" stroke="none" stroke-width="0" d="M 0,2.47867 L 0,0.0533333 L 0.364,0.0533333 L 0.364,0.421333 C 0.458667,0.249333 0.545333,0.136 0.625333,0.0813333 C 0.705333,0.0266667 0.792,0 0.888,0 C 1.02667,0 1.16667,0.0426667 1.30933,0.130667 L 1.168,0.510667 C 1.068,0.453333 0.968,0.424 0.868,0.424 C 0.778667,0.424 0.698667,0.450667 0.628,0.504 C 0.556,0.558667 0.505333,0.633333 0.474667,0.729333 C 0.429333,0.874667 0.406667,1.03467 0.406667,1.20933 L 0.406667,2.47867 Z "/>
	<path id="dp_path056" transform="matrix(1,0,0,1,136.677,29.344)" fill="black" fill-rule="evenodd" stroke="none" stroke-width="0" d="M 0,0.413333 L 0,0 L 1.25467,0 L 1.25467,0.413333 Z "/>
	<path id="dp_path057" transform="matrix(1,0,0,1,139.711,27.4173)" fill="black" fill-rule="evenodd" stroke="none" stroke-width="0" d="M 0,3.344 L 0,0 L 0.664,0 L 1.45067,2.368 C 1.52267,2.588 1.576,2.752 1.60933,2.86267 C 1.64667,2.74 1.70667,2.56267 1.78667,2.32667 L 2.584,0 L 3.17867,0 L 3.17867,3.344 L 2.75333,3.344 L 2.75333,0.546667 L 1.78267,3.344 L 1.38667,3.344 L 0.426667,0.498667 L 0.426667,3.344 Z "/>
	<path id="dp_path058" transform="matrix(1,0,0,1,143.388,28.2827)" fill="black" fill-rule="evenodd" stroke="none" stroke-width="0" d="M 0,1.26667 C 0,0.817333 0.124,0.485333 0.372,0.268 C 0.578667,0.0893333 0.830667,0 1.128,0 C 1.45867,0 1.728,0.108 1.93867,0.326667 C 2.148,0.545333 2.25333,0.846667 2.25333,1.232 C 2.25333,1.544 2.20667,1.78933 2.11333,1.968 C 2.02133,2.14667 1.88533,2.28533 1.708,2.384 C 1.53067,2.484 1.33733,2.53333 1.128,2.53333 C 0.790667,2.53333 0.518667,2.424 0.312,2.20667 C 0.104,1.98933 0,1.676 0,1.26667 Z M 0.418667,1.26533 C 0.418667,1.57467 0.485333,1.808 0.62,1.96267 C 0.754667,2.116 0.924,2.19467 1.128,2.19467 C 1.33067,2.19467 1.49867,2.116 1.63333,1.96133 C 1.768,1.80667 1.83467,1.56933 1.83467,1.252 C 1.83467,0.952 1.768,0.724 1.632,0.569333 C 1.49733,0.416 1.32933,0.337333 1.128,0.337333 C 0.924,0.337333 0.754667,0.416 0.62,0.568 C 0.485333,0.722667 0.418667,0.954667 0.418667,1.26533 Z "/>
	<path id="dp_path059" transform="matrix(1,0,0,1,146.123,28.2827)" fill="black" fill-rule="evenodd" stroke="none" stroke-width="0" d="M 0,2.47867 L 0,0.0533333 L 0.364,0.0533333 L 0.364,0.421333 C 0.458667,0.249333 0.545333,0.136 0.625333,0.0813333 C 0.705333,0.0266667 0.792,0 0.888,0 C 1.02667,0 1.16667,0.0426667 1.30933,0.130667 L 1.168,0.510667 C 1.068,0.453333 0.968,0.424 0.868,0.424 C 0.778667,0.424 0.698667,0.450667 0.628,0.504 C 0.556,0.558667 0.505333,0.633333 0.474667,0.729333 C 0.429333,0.874667 0.406667,1.03467 0.406667,1.20933 L 0.406667,2.47867 Z "/>
	<path id="dp_path060" transform="matrix(1,0,0,1,147.525,28.2827)" fill="black" fill-rule="evenodd" stroke="none" stroke-width="0" d="M 0,1.26667 C 0,0.817333 0.124,0.485333 0.372,0.268 C 0.578667,0.0893333 0.830667,0 1.128,0 C 1.45867,0 1.728,0.108 1.93867,0.326667 C 2.148,0.545333 2.25333,0.846667 2.25333,1.232 C 2.25333,1.544 2.20667,1.78933 2.11333,1.968 C 2.02133,2.14667 1.88533,2.28533 1.708,2.384 C 1.53067,2.484 1.33733,2.53333 1.128,2.53333 C 0.790667,2.53333 0.518667,2.424 0.312,2.20667 C 0.104,1.98933 0,1.676 0,1.26667 Z M 0.418667,1.26533 C 0.418667,1.57467 0.485333,1.808 0.62,1.96267 C 0.754667,2.116 0.924,2.19467 1.128,2.19467 C 1.33067,2.19467 1.49867,2.116 1.63333,1.96133 C 1.768,1.80667 1.83467,1.56933 1.83467,1.252 C 1.83467,0.952 1.768,0.724 1.632,0.569333 C 1.49733,0.416 1.32933,0.337333 1.128,0.337333 C 0.924,0.337333 0.754667,0.416 0.62,0.568 C 0.485333,0.722667 0.418667,0.954667 0.418667,1.26533 Z "/>
	<path id="dp_path061" transform="matrix(1,0,0,1,150.264,28.2827)" fill="black" fill-rule="evenodd" stroke="none" stroke-width="0" d="M 0,2.47867 L 0,0.0533333 L 0.364,0.0533333 L 0.364,0.397333 C 0.541333,0.132 0.797333,0 1.132,0 C 1.27733,0 1.41067,0.0253333 1.532,0.0773333 C 1.65333,0.129333 1.74533,0.2 1.80533,0.284 C 1.86533,0.369333 1.908,0.470667 1.932,0.588 C 1.948,0.665333 1.956,0.797333 1.956,0.988 L 1.956,2.47867 L 1.54933,2.47867 L 1.54933,1.00267 C 1.54933,0.834667 1.53333,0.709333 1.50133,0.626667 C 1.46933,0.542667 1.41333,0.477333 1.332,0.428 C 1.25067,0.377333 1.156,0.353333 1.04667,0.353333 C 0.873333,0.353333 0.722667,0.409333 0.596,0.52 C 0.470667,0.630667 0.406667,0.841333 0.406667,1.15333 L 0.406667,2.47867 Z "/>
	<path id="dp_path062" transform="matrix(1,0,0,1,152.859,27.4173)" fill="black" fill-rule="evenodd" stroke="none" stroke-width="0" d="M 0,0.466667 L 0,0 L 0.406667,0 L 0.406667,0.466667 Z M 0,3.344 L 0,0.918667 L 0.406667,0.918667 L 0.406667,3.344 Z "/>
</svg>